<svg xmlns="http://www.w3.org/2000/svg" width="176" height="70" viewBox="0 0 176 70" fill="none"><g clip-path="url(#clip0_8_27)"><path d="M93.8555 29.7146H90.396L89.7321 31.5186H88.928L91.7021 24.028H92.5602L95.3235 31.5186H94.5194L93.8555 29.7146ZM93.6235 29.0792L92.1231 24.9758L90.6227 29.0792H93.6235Z" fill="white"></path><path d="M96.6835 25.7189C96.9922 25.1439 97.4558 24.6665 98.0219 24.3404C98.5952 24.008 99.248 23.8368 99.9109 23.8449C100.675 23.8267 101.427 24.0368 102.07 24.4481C102.682 24.857 103.145 25.4518 103.392 26.1443H102.545C102.345 25.6521 101.998 25.2329 101.552 24.9435C101.08 24.6653 100.543 24.515 99.9949 24.5075C99.4468 24.4999 98.9062 24.6354 98.4267 24.9004C97.9764 25.1648 97.6127 25.5539 97.3797 26.0205C97.1161 26.5485 96.9846 27.1324 96.9965 27.7222C96.9846 28.3085 97.1161 28.8889 97.3797 29.4131C97.6159 29.8774 97.9789 30.2657 98.4267 30.5331C98.9074 30.7939 99.447 30.9273 99.9941 30.9207C100.541 30.9141 101.077 30.7677 101.552 30.4954C101.995 30.2075 102.341 29.7927 102.545 29.3053H103.435C103.186 29.9938 102.72 30.5833 102.108 30.9855C101.463 31.3925 100.712 31.6004 99.9487 31.5832C99.2854 31.5941 98.6319 31.4227 98.0597 31.0878C97.495 30.7622 97.0317 30.2869 96.7212 29.7146C96.3863 29.1045 96.217 28.4177 96.2301 27.7222C96.2052 27.0265 96.3614 26.3364 96.6835 25.7189Z" fill="white"></path><path d="M109.334 29.7146H105.875L105.211 31.5186H104.407L107.181 24.028H108.039L110.802 31.5186H109.998L109.334 29.7146ZM109.102 29.0792L107.602 24.9758L106.101 29.0792H109.102Z" fill="white"></path><path d="M116.437 24.3888C117.019 24.6784 117.501 25.1362 117.819 25.7028C118.131 26.3351 118.293 27.0307 118.293 27.7356C118.293 28.4406 118.131 29.1361 117.819 29.7685C117.501 30.3309 117.019 30.7835 116.437 31.0663C115.762 31.3823 115.023 31.5372 114.278 31.5186H112.022V23.9311H114.278C115.024 23.9116 115.764 24.0684 116.437 24.3888ZM116.691 30.0593C116.979 29.7495 117.201 29.3846 117.344 28.9865C117.487 28.5885 117.548 28.1657 117.522 27.7437C117.548 27.3176 117.488 26.8906 117.345 26.4882C117.202 26.0857 116.98 25.7161 116.691 25.4012C116.366 25.1046 115.984 24.8771 115.569 24.7326C115.153 24.5882 114.712 24.5298 114.273 24.5611H112.799V30.8886H114.294C114.729 30.9165 115.165 30.8575 115.576 30.7151C115.988 30.5727 116.367 30.3497 116.691 30.0593Z" fill="white"></path><path d="M120.458 24.5504V27.3829H123.34V28.0022H120.458V30.8778H123.669V31.5078H119.697V23.9203H123.669V24.5504H120.458Z" fill="white"></path><path d="M132.601 24.028V31.5186H131.835V25.5358L129.136 31.5186H128.597L125.898 25.5627V31.5186H125.137V24.028H125.941L128.845 30.5224L131.749 24.028H132.601Z" fill="white"></path><path d="M139.353 23.9311L136.919 28.5676V31.5186H136.158V28.5676L133.697 23.9311H134.555L136.546 27.8729L138.516 23.9311H139.353Z" fill="white"></path><path d="M147.557 23.9311V24.5611H144.205V27.3937H147.033V28.0022H144.205V31.4971H143.444V23.9311H147.557Z" fill="white"></path><path d="M151.545 27.7329L153.855 31.5024H153.008L151.07 28.336L149.23 31.5024H148.382L150.676 27.6844L148.382 23.9149H149.23L151.156 27.0759L153.018 23.9149H153.866L151.545 27.7329Z" fill="white"></path><path d="M90.1316 38.7022C90.6062 37.8062 91.3221 37.0602 92.1987 36.5482C93.0845 36.0341 94.0938 35.7698 95.1185 35.7835C96.3109 35.7511 97.4857 36.0756 98.4917 36.7151C99.4365 37.3479 100.152 38.2675 100.532 39.3376H99.1555C98.8422 38.5764 98.3062 37.9271 97.6173 37.4744C96.8874 37.0482 96.0591 36.8182 95.2134 36.8069C94.3677 36.7956 93.5335 37.0033 92.7923 37.4098C92.0968 37.8205 91.5347 38.4225 91.1732 39.1438C90.7857 39.963 90.5848 40.8577 90.5848 41.7636C90.5848 42.6695 90.7857 43.5642 91.1732 44.3834C91.5365 45.102 92.0983 45.7018 92.7923 46.112C93.5335 46.5178 94.3673 46.7256 95.2126 46.7152C96.058 46.7048 96.8864 46.4766 97.6173 46.0528C98.3038 45.6093 98.8399 44.9692 99.1555 44.2165H100.532C100.146 45.2794 99.4267 46.1897 98.4809 46.8121C97.4783 47.4498 96.307 47.7725 95.1185 47.7383C94.0941 47.7494 93.0856 47.4852 92.1987 46.9736C91.3308 46.4768 90.6159 45.7523 90.1316 44.8788C89.6353 43.9247 89.3762 42.8655 89.3762 41.7905C89.3762 40.7156 89.6353 39.6563 90.1316 38.7022Z" fill="white"></path><path d="M104.051 46.7097H108.271V47.6629H102.874V35.9451H104.045L104.051 46.7097Z" fill="white"></path><path d="M116.755 44.8788H111.412L110.387 47.6629H109.146L113.431 36.0797H114.758L119.022 47.6468H117.781L116.755 44.8788ZM116.405 43.9095L114.084 37.5714L111.763 43.9095H116.405Z" fill="white"></path><path d="M129.762 47.6629H128.586L122.082 37.8029V47.6629H120.895V35.9451H122.072L128.586 45.7727V35.9451H129.762V47.6629Z" fill="white"></path><path d="M141.285 47.6629H140.109L133.632 37.8029V47.6629H132.456V35.9451H133.632L140.109 45.7727V35.9451H141.285V47.6629Z" fill="white"></path><path d="M145.133 35.9451V47.6629H143.957V35.9451H145.133Z" fill="white"></path><path d="M149.327 47.3883C148.77 47.147 148.29 46.7577 147.94 46.2628C147.604 45.7894 147.416 45.2272 147.4 44.6473H148.641C148.701 45.2219 148.97 45.7548 149.397 46.1443C149.666 46.3757 149.978 46.5518 150.315 46.6627C150.652 46.7736 151.008 46.817 151.362 46.7905C152.055 46.8329 152.739 46.6138 153.278 46.1766C153.503 45.9866 153.682 45.7486 153.802 45.4802C153.923 45.2117 153.981 44.9198 153.974 44.6258C153.995 44.1884 153.857 43.7582 153.585 43.4141C153.329 43.1086 153.001 42.8716 152.63 42.7248C152.113 42.53 151.585 42.3646 151.049 42.2294C150.412 42.0674 149.788 41.8604 149.181 41.6101C148.715 41.4037 148.31 41.081 148.005 40.6731C147.656 40.1661 147.485 39.5584 147.519 38.9446C147.51 38.3713 147.674 37.8087 147.988 37.329C148.315 36.8383 148.776 36.4514 149.316 36.2143C149.935 35.9355 150.608 35.7975 151.286 35.8105C152.224 35.7719 153.147 36.0572 153.898 36.6182C154.218 36.8656 154.485 37.1747 154.682 37.5273C154.88 37.8798 155.004 38.2684 155.048 38.6699H153.769C153.674 38.1603 153.393 37.7038 152.981 37.3883C152.456 37.0234 151.831 36.8278 151.192 36.8278C150.552 36.8278 149.927 37.0234 149.402 37.3883C149.171 37.5702 148.987 37.8041 148.864 38.0708C148.741 38.3376 148.683 38.6297 148.695 38.923C148.675 39.3537 148.813 39.777 149.084 40.1131C149.343 40.4111 149.671 40.6421 150.039 40.7862C150.551 40.9889 151.076 41.158 151.61 41.2924C152.24 41.4571 152.857 41.6677 153.456 41.9225C153.93 42.1287 154.341 42.4556 154.648 42.8702C155.001 43.3675 155.174 43.9692 155.14 44.5773C155.139 45.1278 154.988 45.6677 154.702 46.139C154.391 46.6487 153.942 47.061 153.407 47.329C152.771 47.646 152.067 47.8013 151.356 47.7814C150.659 47.7971 149.967 47.6631 149.327 47.3883Z" fill="white"></path><path d="M166.139 35.9451V47.6629H164.962V42.1809H158.594V47.6629H157.417V35.9451H158.594V41.2062H164.962V35.9451H166.139Z" fill="white"></path><path d="M19.7156 36.8282V19.2838C19.716 18.6576 19.8813 18.0425 20.1948 17.5001C20.5083 16.9576 20.9591 16.5068 21.502 16.1928L48.7897 0.473885C49.3325 0.16559 49.9463 0.003479 50.5708 0.003479C51.1953 0.003479 51.8091 0.16559 52.3518 0.473885L79.6342 16.1928C80.1785 16.5057 80.6307 16.9561 80.9452 17.4987C81.2597 18.0413 81.4256 18.657 81.426 19.2838V50.7162C81.4256 51.343 81.2597 51.9587 80.9452 52.5013C80.6307 53.0439 80.1785 53.4943 79.6342 53.8072L52.3518 69.5207C51.809 69.8347 51.1928 70 50.5654 70C49.938 70 49.3217 69.8347 48.779 69.5207L21.502 53.8072C20.9591 53.4932 20.5083 53.0424 20.1948 52.4999C19.8813 51.9575 19.716 51.3424 19.7156 50.7162V46.5913H24.7457V47.8191C24.745 48.4461 24.9104 49.0622 25.225 49.605C25.5397 50.1478 25.9924 50.598 26.5375 50.9101L31.7997 53.9418V45.0135C33.6023 44.7011 35.4211 44.3457 37.2346 43.9365V57.0813L42.8098 60.3123V42.601C43.5294 42.4071 44.258 42.2079 44.9956 42.0032C46.075 41.6963 47.1544 41.3732 48.2338 41.0393V63.4141L48.7736 63.7264C49.3163 64.0404 49.9326 64.2057 50.56 64.2057C51.1874 64.2057 51.8036 64.0404 52.3464 63.7264L53.8037 62.8918V38.293C55.6675 37.5965 57.4773 36.8785 59.2331 36.1389V59.7738L64.8083 56.5428V32.9025C66.7243 31.9494 68.5431 30.9585 70.2432 29.9462V53.4195L74.6041 50.9101C75.147 50.596 75.5978 50.1452 75.9113 49.6028C76.2248 49.0603 76.3901 48.4453 76.3905 47.8191V22.1809C76.3901 21.5548 76.2248 20.9397 75.9113 20.3972C75.5978 19.8548 75.147 19.404 74.6041 19.0899L52.3518 6.27356C51.809 5.95962 51.1928 5.79429 50.5654 5.79429C49.938 5.79429 49.3217 5.95962 48.779 6.27356L26.5375 19.0899C25.9924 19.402 25.5397 19.8523 25.225 20.395C24.9104 20.9378 24.745 21.5539 24.7457 22.1809V36.6505L19.7156 36.8282Z" fill="white"></path><path d="M19.5429 36.6667C12.4133 36.6182 7.32386 35.1535 5.86665 32.3102C5.74955 32.0851 5.65552 31.8487 5.586 31.6048C4.91136 29.2138 6.61145 26.3328 10.071 23.3872C3.01698 27.8783 -0.868933 32.5202 0.16731 36.1713C1.28991 40.1346 7.9985 42.0625 17.5837 41.8632C18.2206 41.8632 18.8791 41.8255 19.5429 41.7932C21.1404 41.7178 22.8027 41.5868 24.5298 41.4001C25.3556 41.3086 26.2029 41.2063 27.0557 41.0878C32.2457 40.3682 37.3824 39.3068 42.432 37.9106L43.4143 37.636L45.1251 37.1567C47.9802 36.3059 50.7273 35.3797 53.3449 34.3996C55.2123 33.6816 57.0114 32.9546 58.742 32.2187C59.2817 31.9925 59.7729 31.7663 60.2802 31.5348C61.6673 30.9047 62.9787 30.2531 64.274 29.5961C66.2224 28.5838 68.052 27.5498 69.6711 26.5051C70.1407 26.209 70.5887 25.9128 71.0258 25.6112L63.5562 25.2289H63.3134L55.1206 24.7712L57.5709 28.0022L57.6248 28.083C54.4691 29.4528 51.2466 30.6642 47.9694 31.7125C46.6741 32.1325 45.3572 32.531 44.0079 32.9079C37.651 34.7482 31.126 35.9514 24.5298 36.4998L19.5429 36.6667Z" fill="#FA7921"></path><path d="M173.884 42.8595L174.456 43.0049C174.367 43.4261 174.139 43.8053 173.808 44.0819C173.48 44.3348 173.073 44.4661 172.658 44.4534C172.257 44.4706 171.86 44.3714 171.514 44.168C171.211 43.9666 170.978 43.6771 170.845 43.3387C170.688 42.9711 170.609 42.5751 170.613 42.1756C170.604 41.7657 170.693 41.3596 170.872 40.9909C171.04 40.6663 171.304 40.4012 171.628 40.2316C171.949 40.0538 172.312 39.9629 172.68 39.9677C173.067 39.9599 173.445 40.077 173.759 40.3016C174.065 40.5343 174.283 40.8623 174.38 41.2332L173.813 41.3678C173.742 41.096 173.587 40.8532 173.371 40.6731C173.16 40.5248 172.906 40.4492 172.648 40.4577C172.35 40.4464 172.056 40.5314 171.811 40.7001C171.587 40.8568 171.421 41.0816 171.336 41.3409C171.245 41.6098 171.2 41.8918 171.201 42.1756C171.194 42.5059 171.249 42.8347 171.363 43.1449C171.456 43.4005 171.633 43.617 171.865 43.7588C172.087 43.8955 172.344 43.9665 172.604 43.9634C172.902 43.9716 173.193 43.8743 173.425 43.6888C173.666 43.4707 173.827 43.179 173.884 42.8595Z" fill="#FA7921"></path><path d="M172.502 45.552C171.839 45.552 171.191 45.3557 170.639 44.988C170.088 44.6203 169.659 44.0977 169.405 43.4864C169.151 42.875 169.085 42.2023 169.215 41.5535C169.345 40.9047 169.665 40.3088 170.134 39.8413C170.603 39.3739 171.201 39.0558 171.851 38.9274C172.502 38.7989 173.176 38.8659 173.788 39.1199C174.401 39.3738 174.924 39.8033 175.291 40.3539C175.659 40.9046 175.855 41.5516 175.854 42.2133C175.852 43.0992 175.498 43.9484 174.87 44.5744C174.242 45.2004 173.39 45.552 172.502 45.552ZM172.502 39.0899C171.882 39.0899 171.276 39.2734 170.76 39.6172C170.244 39.961 169.842 40.4496 169.605 41.0213C169.368 41.593 169.306 42.2221 169.427 42.829C169.548 43.4359 169.846 43.9934 170.285 44.431C170.723 44.8685 171.282 45.1665 171.89 45.2872C172.499 45.408 173.129 45.346 173.702 45.1092C174.275 44.8724 174.765 44.4714 175.109 43.9569C175.454 43.4423 175.638 42.8374 175.638 42.2186C175.638 41.8073 175.558 41.3999 175.401 41.0197C175.243 40.6395 175.012 40.2939 174.721 40.0028C174.43 39.7117 174.084 39.4808 173.703 39.3232C173.322 39.1657 172.914 39.0846 172.502 39.0846V39.0899Z" fill="#FA7921"></path></g><defs><clipPath id="clip0_8_27"><rect width="175.854" height="70" fill="white"></rect></clipPath></defs></svg>